<svg xmlns="http://www.w3.org/2000/svg" width="476.81802" height="417.28382" viewBox="0 0 476.81802 417.28382" xmlns:xlink="http://www.w3.org/1999/xlink"><path d="M250.84838,404.71428h-1.98921c.03568-.17402,.05465-.35393,.05465-.5381,0-1.47995-1.21085-2.69071-2.69071-2.69071h-5.38142c-1.47986,0-2.69071,1.21076-2.69071,2.69071,0,.18418,.01898,.36408,.05465,.5381h-1.98921c-2.49809,0-4.52307,2.02508-4.52307,4.52307v1.7166c0,2.49809,2.02498,4.52317,4.52307,4.52317h14.63195c2.49809,0,4.52307-2.02508,4.52307-4.52317v-1.7166c0-2.49799-2.02498-4.52307-4.52307-4.52307Z" fill="#3f3d56"/><g><g><polygon points="339.82679 399.27906 332.24131 399.21512 328.88341 369.27437 340.07886 369.36875 339.82679 399.27906" fill="#ffb6b6"/><path d="M315.52942,411.34128c-.01648,1.867,1.48857,3.40395,3.36238,3.42112l15.08185,.12584,2.64029-5.35183,.96971,5.37913,5.6907,.05161-1.43698-19.18544-1.97987-.13172-8.07563-.55668-2.60536-.17447-.04572,5.4283-12.11528,8.21743c-.92175,.62621-1.47687,1.66339-1.48608,2.77672Z" fill="#2f2e41"/></g><g><polygon points="422.79558 399.27906 415.2101 399.21512 411.8522 369.27437 423.04766 369.36875 422.79558 399.27906" fill="#ffb6b6"/><path d="M398.49822,411.34128c-.01648,1.867,1.48857,3.40395,3.36238,3.42112l15.08185,.12584,2.64029-5.35183,.96971,5.37913,5.6907,.05161-1.43698-19.18544-1.97987-.13172-8.07563-.55668-2.60536-.17447-.04572,5.4283-12.11528,8.21743c-.92175,.62621-1.47687,1.66339-1.48608,2.77672Z" fill="#2f2e41"/></g><path d="M350.18745,163.11147h55.27158s19.31564,28.31858,14.91022,54.75112l-9.17796,78.19625,19.45728,91.41252-18.72305,1.83559-32.30643-93.24811-4.40542-56.53626-8.07661,60.94168-24.94961,86.08786-18.00326,.185,10.64644-87.0071,10.4148-81.98423s2.6979-5.67667,.42647-7.9196c-2.27144-2.24293,.33526-6.22586,.33526-6.22586,0,0,3.47957-5.50776,.43644-8.10479-3.04313-2.59702,3.74386-32.38408,3.74386-32.38408Z" fill="#2f2e41"/></g><g><path d="M257.69376,22.51365c3.2916-.44875,6.34213,1.80476,6.88055,5.08289,.04759,.32129,.0685,.64595,.06251,.97067l48.21648,19.26512-6.7004,12.06686-48.06383-25.58774c-2.76503-.26538-5.004-2.36074-5.45181-5.10216-.49047-3.19518,1.70212-6.18297,4.89728-6.67344,.05297-.00813,.10605-.01553,.15922-.02221Z" fill="#ffb6b6"/><path d="M377.59126,67.7758s9.28097,13.32039-15.19013,14.85779c-29.15071,1.83139-65.36397-17.39578-64.02117-22.27572,.66652-2.42223,1.48132-1.57521-6.39332-3.94901-6.40448-1.93062-8.03199-.63658-9.57764,.0276-4.07577,1.75141,1.32794-7.6087-5.06642-7.5768-10.79129,.05387-10.0167-22.63608,.04946-17.90623,0,0,4.51536-6.68979,13.01696-1.51697,4.775,2.90536,4.40396,11.17006,7.11259,9.51414,2.70863-1.65592,8.90276,6.32931,10.45103,6.94424,1.54827,.61493,19.01238-1.26712,19.01238-1.26712l50.60626,23.14807Z" fill="#e6e6e6"/></g><path d="M349.93734,149.67468s-7.49084,4.36963-3.74543,6.24233c3.74541,1.8727,3.74541,2.00541,3.74541,5.06023s1.24847,8.67293,3.12117,8.67293,9.47856,0,17.59361,14.35739,48.20119,3.19441,48.20119-1.17523c0-4.36964-5.13909-13.56671-9-17-3.86091-3.43329-13.60758-2.42451-10.48641-5.54568,3.12117-3.12117,8.11505-1.24847,4.36964-4.99388-3.74541-3.74541-6.86658-4.36964-6.86658-9.98775s7.10892-59.84541,7.10892-59.84541c0,0-1.24847-18.1839-10.61199-18.1839-9.36352,0-7.10892-8.11505-7.10892-8.11505l-1.56059-4.17257-19.84408,2.84423-2,2s-11,16.87883-11,20c0,3.12117-12.11505,11.26684-4,25,8.11505,13.73316-1.28564,8.74454,3.33252,13.63062,8.68134,9.18491,6.87506,33.35016-1.24847,31.21173Z" fill="#e6e6e6"/><path d="M212.32653,416.09382c0,.66003,.53003,1.19,1.19006,1.19h253.28998c.65997,0,1.19-.52997,1.19-1.19,0-.65997-.53003-1.19-1.19-1.19H213.5166c-.66003,0-1.19006,.53003-1.19006,1.19Z" fill="#ccc"/><path d="M125.01134,38.59724c-5.4412-2.54952-10.96011-5.02142-16.49458-7.41551-.40422,.41968-.71507,.91718-.9483,1.47692l-.71516,1.72561v.01556l-.00863,.02106c-.71896-.80749-1.60606-1.48413-2.67467-1.92004-3.73987-1.52559-8.00836,.26948-9.53396,4.00926l-12.41159,30.42607c-1.52559,3.73987,.26938,8.00836,4.00926,9.53396,1.0671,.43534,2.17282,.57264,3.24997,.4992l-.0111,.02723-6.70044,16.43243-.01433,.03501c-.71877-.80692-1.60558-1.48299-2.67363-1.91871-3.73987-1.52559-8.00836,.26938-9.53396,4.00926l-12.41159,30.42607c-1.52559,3.73978,.26938,8.00827,4.00926,9.53386,1.06881,.43601,2.17623,.57293,3.255,.49863l-.01148,.02828-6.70044,16.44789c-.71516-.80834-1.63234-1.46135-2.68948-1.8966-3.74671-1.5235-8.00637,.26426-9.52988,4.01097l-8.72144,21.36057c.60623,.71507,1.25924,1.41467,1.8966,2.11427,.88615,4.75716,1.88113,9.32777,2.98486,13.74295,0,0,.06225,3.07813,.73072,2.82934,1.29037,4.85043,2.7206,9.46772,4.27523,13.89838,.32641,.93283,.65292,1.85001,1.01045,2.76728l1.19709,.49749c2.53405,1.04157,5.4412-.17099,6.48277-2.7206L125.33784,39.90317c.13996-.32651,.23323-.66848,.29538-1.01055-.20211-.09327-.41978-.20201-.62189-.29538Z" fill="#2d5af1"/><path d="M313.37087,405.16797c-1.77222-3.88654-3.51343-7.7887-5.20801-11.7063-37.60645-86.29736-57.33466-179.80829-57.33466-273.84772,0-17.64496,.69958-35.3056,2.11426-52.93506,.03113-.63745,.09326-1.27478,.13995-1.91223l-14.59796-.46637c-.0777,.79285-.13989,1.58575-.20209,2.3786-.06219,.68408-.12445,1.38367-.17102,2.06763-2.82941,36.44043-2.58063,73.052,.4975,109.41467-.06226-.43524-.12439-.85504-.18652-1.29028-.51306-2.62732-1.08826-5.22357-1.72565-7.83539-.20209-.83942-.41974-1.69446-.63745-2.534-.09326-.40417-.20209-.80835-.31091-1.21259l4.01093,19.54169,13.77399,89.77972h.06226c11.05341,48.17792,27.22144,95.23651,47.97577,140.07196h15.28204l-3.48242-9.51434Z" fill="#3f3d56"/><path d="M256.01985,274.0612c-90.27725,30.54847-175.06661,24.29884-207.37182-62.74475-.35753-.91727-.68404-1.83445-1.01045-2.76728L125.01134,38.59724c.20211,.09337,.41978,.20211,.62189,.29538,19.89922,9.34333,38.89682,19.9459,55.50023,33.58002,28.51182,23.41269,49.01736,56.19974,58.45397,91.81631,.10884,.40422,.21767,.80844,.31094,1.21256l2.54961,11.65971,13.57187,96.89998Z" fill="#2d5af1"/><path d="M83.78476,6.79237l-8.5719-3.49668c-2.54145-1.03673-5.44224,.18304-6.47898,2.72458l-.53905,1.3214c-.71867-.80663-1.6053-1.48251-2.67306-1.91804h-.00009c-3.73978-1.52559-8.00827,.26948-9.53386,4.00926l-11.01723,27.00796c-1.52559,3.73987,.26938,8.00836,4.00926,9.53396,1.06776,.43553,2.17414,.57274,3.25197,.49901l-6.25039,15.32225c-.71867-.80663-1.60539-1.48251-2.67316-1.91804-3.73978-1.52559-8.00827,.26938-9.53386,4.00926l-11.01732,27.00796c-1.52559,3.73987,.26948,8.00827,4.00926,9.53386,1.06776,.43563,2.17424,.57283,3.25206,.49901l-6.25039,15.32225c-.71867-.80663-1.60539-1.48242-2.67316-1.91795v-.00009c-3.73978-1.5255-8.00827,.26948-9.53386,4.00926L.54367,145.34961c-1.52559,3.73978,.26948,8.00827,4.00926,9.53386,1.06776,.43553,2.17424,.57274,3.25206,.49901l-2.42958,5.95586c-1.03673,2.54145,.18304,5.44215,2.72458,6.47898l8.5718,3.49668c2.54155,1.03673,5.44224-.18313,6.47898-2.72458L86.50934,13.27134c1.03673-2.54155-.18313-5.44224-2.72458-6.47898Z" fill="#2d5af1"/><path d="M472.95187,220.6502l3.49668-8.5719c1.03673-2.54145-.18304-5.44224-2.72458-6.47898l-1.3214-.53905c.80663-.71867,1.48251-1.6053,1.91804-2.67306v-.00009c1.52559-3.73978-.26948-8.00827-4.00926-9.53386l-27.00796-11.01723c-3.73987-1.52559-8.00836,.26938-9.53396,4.00926-.43553,1.06776-.57274,2.17414-.49901,3.25197l-15.32225-6.25039c.80663-.71867,1.48251-1.60539,1.91804-2.67316,1.52559-3.73978-.26938-8.00827-4.00926-9.53386l-27.00796-11.01732c-3.73987-1.52559-8.00827,.26948-9.53386,4.00926-.43563,1.06776-.57283,2.17424-.49901,3.25206l-15.32225-6.25039c.80663-.71867,1.48242-1.60539,1.91795-2.67316h.00009c1.5255-3.73978-.26948-8.00827-4.00926-9.53386l-27.00805-11.01732c-3.73978-1.52559-8.00827,.26948-9.53386,4.00926-.43553,1.06776-.57274,2.17424-.49901,3.25206l-5.95586-2.42958c-2.54145-1.03673-5.44215,.18304-6.47898,2.72458l-3.49668,8.5718c-1.03673,2.54155,.18313,5.44224,2.72458,6.47898l155.31807,63.35858c2.54155,1.03673,5.44224-.18313,6.47898-2.72458Z" fill="#2d5af1"/><path d="M254.84838,21.71428h-1.98921c.03568-.17402,.05465-.35393,.05465-.5381,0-1.47995-1.21085-2.69071-2.69071-2.69071h-5.38142c-1.47986,0-2.69071,1.21076-2.69071,2.69071,0,.18418,.01898,.36408,.05465,.5381h-1.98921c-2.49809,0-4.52307,2.02508-4.52307,4.52307v1.7166c0,2.49809,2.02498,4.52317,4.52307,4.52317h14.63195c2.49809,0,4.52307-2.02508,4.52307-4.52317v-1.7166c0-2.49799-2.02498-4.52307-4.52307-4.52307Z" fill="#3f3d56"/><path d="M254.84838,40.36981h-1.98921c.03568-.17402,.05465-.35393,.05465-.5381,0-1.47995-1.21085-2.69071-2.69071-2.69071h-5.38142c-1.47986,0-2.69071,1.21076-2.69071,2.69071,0,.18418,.01898,.36408,.05465,.5381h-1.98921c-2.49809,0-4.52307,2.02508-4.52307,4.52307v1.7166c0,2.49809,2.02498,4.52317,4.52307,4.52317h14.63195c2.49809,0,4.52307-2.02508,4.52307-4.52317v-1.7166c0-2.49799-2.02498-4.52307-4.52307-4.52307Z" fill="#3f3d56"/><path d="M254.35724,51.13265c-.48193,4.53949-.90171,9.07897-1.27481,13.63402-.04668,.63745-.10884,1.27481-.13996,1.91226h-14.66013c.06225-.79288,.1244-1.58575,.20211-2.37863,.31094-3.68446,.65292-7.36892,1.02611-11.03782,.06215-.71516,.13986-1.41476,.21758-2.12983h14.6291Z" fill="#3f3d56"/><path d="M253.75091,50.35533l-.07771,.77731c-.15552,.76175-.52862,1.44579-1.05714,1.97431-.6996,.6996-1.67902,1.13494-2.75172,1.13494h-7.77314c-.99498,0-1.8966-.3731-2.58064-.97942,.06215-.71516,.13986-1.41476,.21758-2.12983,.13996-1.38364,.27982-2.76728,.4509-4.15092v-.01547c.55964-.31094,1.21256-.49749,1.91216-.49749h7.77314c2.14539,0,3.88657,1.74118,3.88657,3.88657Z" fill="#3f3d56"/><g><path d="M393.64629,203.57067c-1.65338-2.88138-.71211-6.55535,2.12307-8.28676,.27983-.16489,.5728-.30633,.87595-.42287l-.36519-62.48563,14.78949-3.76441-6.63974,70.15771c.79366,2.66194-.30617,5.52444-2.67809,6.97008-2.77634,1.65579-6.36928,.74739-8.02505-2.02894-.02745-.04603-.05426-.09243-.08044-.13919Z" fill="#ffb6b6"/><path d="M391.86407,71.68621s12.23519-15.64049,18.43824,10.79303c6.20305,26.43352,5.66166,53.0238,4.03181,56.62323-1.62986,3.59944,3.31074-.61225,3.07488,8.334-.19182,7.27602-8.71438,6.49077-7.66217,7.87091,2.77462,3.63933-2.7301,5.42387,.30608,11.94924,3.03618,6.52537-23.75686,21.89366-18.77958,3.36495,0,0-6.65599-4.65854-3.86434-15.1851,1.56795-5.91233,8.66454-6.0704,6.34238-8.32536-2.32216-2.25496,3.81027-11.32671,4.0007-13.13496,.6111-5.8027-4.90374,32.74056-8.80196-3.16206l2.91394-59.12787Z" fill="#e6e6e6"/></g><g><path d="M425.04117,41.01519c.18331,7.8878-2.7645,15.52548-6.99928,22.23395-1.25823-3.9163-3.52022-7.48067-5.87925-10.87848,1.23155,7.27851-.11689,14.94192-3.6039,21.4459-.13065,.09137-.25344,.17328-.38579,.24741-3.45179,2.07637-7.82801,2.91738-11.56209,1.41771,7.71521-8.31652,8.69707-22.09573,2.22871-31.42402-1.83132-2.64693-4.19974-4.98793-5.33402-8.0002-1.7909-4.80623-.06935-10.09802,1.01666-15.10902,1.0155-4.66373,1.19325-10.21361-1.93561-13.63153,.64253-.91846,1.86277-1.55342,3.01349-1.38749,1.92912,.2725,3.33332,1.94928,4.22765,3.67627,.89433,1.72693,1.48416,3.64096,2.73053,5.1326,2.30811,2.79193,6.23876,3.45204,9.55123,4.92345,8.02206,3.57315,12.73936,12.57652,12.93166,21.35346Z" fill="#2f2e41"/><path d="M357.51541,36.50528c.45842-1.60447-2.70126,8.2033-1.17658,8.38037,6.94435,.79666,16.47713,4.94402,21.31381,6.87885,.21783-.02532,.43566-.05059,.64703-.0822,.5189-.05692,1.02502-.13913,1.52468-.23395,11.26212-2.13085,15.59297-19.4308,15.59297-19.58887,0-.77772-1.86657-22.13839-4.807-22.45454-.76234-.0822-1.53751-.12647-2.32546-.12647h-7.29668c-1.55029-.32881-3.0878-.55643-4.58042-.66391h-.01282c-14.68943-1.11918-26.27187,7.83416-25.18922,18.7287,.00641,.01262,.01924,.02528,.02561,.03794,.31394,.4679,.5894,.91051,.83284,1.33414,.23703,.39835,.43562,.77772,.60856,1.13813,1.33891,2.78213-2.10272,6.28291,.17938,6.93634,3.0352,.86906-7.9827,29.43352,4.03098,29.43352-5.84373,1.66148-.6323-25.29197,.6323-29.71806Z" fill="#2f2e41"/><circle cx="370.62852" cy="35.98994" r="17.27578" fill="#ffb6b6"/><path d="M351.20574,28.28539c.28829,.15175,.57016,.29083,.85845,.42996,.30107,.14542,.60219,.29087,.90326,.42363,5.78482,2.62406,10.49337,2.91489,13.35056-.85359,.07687-1.97277,.5189-3.93292,1.31326-5.75395-.14737,2.01704,.40359,4.07201,1.52468,5.75395h5.75276c5.92574,3.93288,8.96869,4.34389,4.85592,17.25543-1.14674,3.59778-5.70626,24.5332-3.91253,27.63781,.5189-.05692,6.03941-22.9877,6.53907-23.08252,11.26212-2.13085,18.41784-20.68525,17.50176-21.73485,0-3.08562-.71749-6.00051-2.00515-8.60558-1.6656-3.38282-4.28575-6.22817-7.52088-8.18195-1.90904-.9295-3.9206-1.68194-6.00903-2.25731-.05126-.01266-.09611-.02532-.14733-.03794-.63421-.17073-1.28124-.32881-1.92827-.4616-1.32609-.27821-2.67138-.48684-4.04873-.61331-.09611-.00633-.19218-.01266-.28187-.01266-.56375,0-1.08906,.15807-1.54388,.42367-.00641,0-.00641,.00629-.01282,.00629-.33314,.19601-.6278,.45528-.85845,.7651-.39718,.50583-.6278,1.13813-.6278,1.82735h-6.40621c-.23703,0-.47405,.00633-.71108,.01895-8.92384,.35409-16.0988,7.37263-16.56007,16.14895-.0192,.30349-.02561,.60065-.02561,.90418Z" fill="#2f2e41"/><circle cx="388.9783" cy="11.38139" r="11.38139" fill="#2f2e41"/></g></svg>