<svg xmlns="http://www.w3.org/2000/svg" data-name="Layer 1" width="718.50899" height="601.71823" viewBox="0 0 718.50899 601.71823" xmlns:xlink="http://www.w3.org/1999/xlink"><path d="M895.34555,200.62251H263.02218a1.0156,1.0156,0,0,1,0-2.0307H895.34555a1.0156,1.0156,0,0,1,0,2.0307Z" transform="translate(-262.02897 -164.07002)" fill="#cacaca"/><ellipse cx="23.34831" cy="11.16881" rx="10.92534" ry="11.16881" fill="#3f3d56"/><ellipse cx="61.09038" cy="11.16881" rx="10.92534" ry="11.16881" fill="#3f3d56"/><ellipse cx="98.83246" cy="11.16881" rx="10.92534" ry="11.16881" fill="#3f3d56"/><path d="M872.72853,166.83832h-26.81a2.0304,2.0304,0,0,0,0,4.06h26.81a2.0304,2.0304,0,0,0,0-4.06Z" transform="translate(-262.02897 -164.07002)" fill="#3f3d56"/><path d="M872.72853,174.45832h-26.81a2.0304,2.0304,0,0,0,0,4.06h26.81a2.0304,2.0304,0,0,0,0-4.06Z" transform="translate(-262.02897 -164.07002)" fill="#3f3d56"/><path d="M872.72853,182.0683h-26.81a2.0304,2.0304,0,0,0,0,4.06h26.81a2.0304,2.0304,0,0,0,0-4.06Z" transform="translate(-262.02897 -164.07002)" fill="#3f3d56"/><path d="M862.717,234.906H286.777a12.048,12.048,0,0,0-12.03,12.03v1.94a12.048,12.048,0,0,0,12.03,12.03H862.717a12.048,12.048,0,0,0,12.03-12.03v-1.94A12.048,12.048,0,0,0,862.717,234.906Z" transform="translate(-262.02897 -164.07002)" fill="#f0f0f0"/><path d="M356.28234,252.70618H301.45945a4.62947,4.62947,0,0,1,0-9.25893h54.82289C362.25257,243.36392,362.31228,252.79027,356.28234,252.70618Z" transform="translate(-262.02897 -164.07002)" fill="#fff"/><path d="M520.28234,252.70618H465.45945a4.62947,4.62947,0,0,1,0-9.25893h54.82289C526.25257,243.36392,526.31228,252.79027,520.28234,252.70618Z" transform="translate(-262.02897 -164.07002)" fill="#fff"/><path d="M684.28234,252.70618H629.45945a4.62947,4.62947,0,0,1,0-9.25893h54.82289C690.25257,243.36392,690.31228,252.79027,684.28234,252.70618Z" transform="translate(-262.02897 -164.07002)" fill="#fff"/><path d="M839.78234,253.20618H784.95945a4.62946,4.62946,0,0,1,0-9.25893h54.82289C845.75257,243.86392,845.81228,253.29027,839.78234,253.20618Z" transform="translate(-262.02897 -164.07002)" fill="#4a00e0"/><rect x="490.21805" y="70.83595" width="2" height="26" fill="#fff"/><path d="M547.2921,619.71843H312.239a7.90878,7.90878,0,0,1-7.89963-7.89963V577.39342a7.90879,7.90879,0,0,1,7.89963-7.89964H547.2921a7.9088,7.9088,0,0,1,7.89964,7.89964V611.8188A7.90879,7.90879,0,0,1,547.2921,619.71843Z" transform="translate(-262.02897 -164.07002)" fill="#f0f0f0"/><path d="M524.45379,614.39H317.56867a7.9088,7.9088,0,0,1-7.89964-7.89964v-23.7643a7.9088,7.9088,0,0,1,7.89964-7.89964h224.395a7.90879,7.90879,0,0,1,7.89964,7.89964v6.25441A25.43817,25.43817,0,0,1,524.45379,614.39Z" transform="translate(-262.02897 -164.07002)" fill="#fff"/><path d="M453.09041,592.15716H358.617a2.03732,2.03732,0,1,1,0-4.07464h94.47342a2.03732,2.03732,0,0,1,0,4.07464Z" transform="translate(-262.02897 -164.07002)" fill="#e6e6e6"/><path d="M500.91452,600.48987H358.617a2.03733,2.03733,0,1,1,0-4.07465H500.91452a2.03733,2.03733,0,0,1,0,4.07465Z" transform="translate(-262.02897 -164.07002)" fill="#e6e6e6"/><path d="M562.307,530.10611H294.29691a8.07557,8.07557,0,0,1-8.06636-8.06636V317.17217a8.07531,8.07531,0,0,1,8.06636-8.06606H562.307a8.07531,8.07531,0,0,1,8.06636,8.06606V522.03975A8.07557,8.07557,0,0,1,562.307,530.10611Z" transform="translate(-262.02897 -164.07002)" fill="#fff"/><path d="M562.30686,531.10611H294.29709a9.077,9.077,0,0,1-9.0664-9.06641V317.172a9.07652,9.07652,0,0,1,9.0664-9.06592H562.30686a9.07652,9.07652,0,0,1,9.0664,9.06592V522.0397A9.077,9.077,0,0,1,562.30686,531.10611Zm-268.00977-221a7.07423,7.07423,0,0,0-7.0664,7.06592V522.0397a7.07434,7.07434,0,0,0,7.0664,7.06641H562.30686a7.07434,7.07434,0,0,0,7.0664-7.06641V317.172a7.07423,7.07423,0,0,0-7.0664-7.06592Z" transform="translate(-262.02897 -164.07002)" fill="#f0f0f0"/><path d="M286.84959,491.10611V522.0399a7.45829,7.45829,0,0,0,7.44716,7.44716H562.30719a7.45829,7.45829,0,0,0,7.44717-7.44716V491.10611Z" transform="translate(-262.02897 -164.07002)" fill="#f0f0f0"/><rect x="428.29533" y="234.39979" width="1.99962" height="333.55961" transform="translate(-402.07292 382.34175) rotate(-57.37135)" fill="#f0f0f0"/><rect x="263.30853" y="400.17978" width="333.55961" height="1.99962" transform="translate(-410.46649 131.14319) rotate(-32.62865)" fill="#f0f0f0"/><polygon points="545.364 587.788 532.974 587.787 527.079 539.998 545.366 539.999 545.364 587.788" fill="#a0616a"/><path d="M807.06258,747.80889l-13.22-5.37-.39-.16-7.3,5.53a15.54249,15.54249,0,0,0-15.53,14.87c-.02.22-.02.45-.02.68v.51h39.95v-16.06Z" transform="translate(-262.02897 -164.07002)" fill="#2f2e41"/><polygon points="516.348 576.258 504.66 580.37 483.238 537.245 500.488 531.177 516.348 576.258" fill="#a0616a"/><path d="M776.72189,736.61787l-14.2529-.67773-.421-.02152-5.05069,7.63948a15.54248,15.54248,0,0,0-9.71416,19.1816c.05413.21415.13048.43115.20682.64809l.16927.4811,37.68529-13.2598L780.014,735.45951Z" transform="translate(-262.02897 -164.07002)" fill="#2f2e41"/><path d="M811.77112,545.79972c11.33506-.43955-2.70631,89.88978-2.70631,89.88978s4.10734,79.30546,3.23671,83.46726-.10978,15.38636-.10978,15.38636c-2.22075-4.04192-25.13224-.9914-25.13224-.9914l-3.11682-80.37587-15.91342-64.39953-22.06224,43.168,21.14563,66.26061s8.56336,7.92394,7.65278,11.0553-23.341,10.19318-27.46279,10.353-2.26071-5.07241-2.46051-10.22468-19.59569-52.90457-26.41781-69.1522-1.51846-39.15745,1.964-55.80468,21.80339-47.88859,21.80339-47.88859C764.93328,510.893,800.43605,546.23928,811.77112,545.79972Z" transform="translate(-262.02897 -164.07002)" fill="#2f2e41"/><path d="M673.63366,472.80155a9.15861,9.15861,0,0,0,13.72045,2.99545l27.25821,17.784-.083-16.91272L688.65716,462.3732a9.20824,9.20824,0,0,0-15.0235,10.42835Z" transform="translate(-262.02897 -164.07002)" fill="#a0616a"/><path d="M805.88412,560.28042c-28.10986.001-43.60059-5.626-51.82666-10.65039-10.05859-6.14356-11.77978-12.62207-11.84814-12.89551l-.02-.07812.979-12.32032.42822-.959a19.50463,19.50463,0,0,0,.73438-14.00684l-.03076-.09472.00781-.09864,6.57275-85.24462,23.25977-7.61915,6.7666-6.79882,30.12744-.437,4.19776,8.51025,23.751,8.94141L827.31478,495.9855l-5.59375,9.6416L823.972,516.13l-.01562.09473-7.33838,43.7998-.40381.01758Q810.78549,560.28531,805.88412,560.28042Z" transform="translate(-262.02897 -164.07002)" fill="#3f3d56"/><path d="M733.162,507.09878l-11.02783-6.53809-.69092-.998a15.7342,15.7342,0,0,0-12.4541-6.74805l-.12842-.00391L693.67221,483.881l6.2959-18.44336,23.81,7.03418,16.59961-41.24463a13.19911,13.19911,0,0,1,23.47559-2.00635,13.62434,13.62434,0,0,1,1.96728,7.20508v26.9873l-.09961.13379Z" transform="translate(-262.02897 -164.07002)" fill="#3f3d56"/><path d="M806.88908,544.41764a9.15863,9.15863,0,0,1,12.18666-6.97916l20.656-25.15175,5.002,16.15634-20.38215,21.40758a9.20824,9.20824,0,0,1-17.46248-5.433Z" transform="translate(-262.02897 -164.07002)" fill="#a0616a"/><path d="M837.77328,541.2394,824.057,527.52163l8.73145-21.27441,12.65381-17.27832c-13.48389-6.56446-23.60547-22.11524-30.93946-34.98828l-.08252-.14454,1.82618-14.30371a18.367,18.367,0,0,1,3.87353-9.14306,18.36952,18.36952,0,0,1,29.90869,1.709l24.5918,54.66846-.27686.41308-19.78027,33.71875-5.39844,3.501Z" transform="translate(-262.02897 -164.07002)" fill="#3f3d56"/><path d="M817.60205,380.40273a25.10467,25.10467,0,0,1-49.75065-6.77109l.0485-.35635a25.10467,25.10467,0,0,1,49.69445,7.12639Z" transform="translate(-262.02897 -164.07002)" fill="#a0616a"/><path d="M811.21258,393.33348c1.28921-2.61883,2.61359-5.43045,2.25128-8.32684s-3.20276-5.66484-5.99192-4.80406c-1.66786.51473-2.92844,2.16171-4.67189,2.246-2.39885.116-3.77423-2.62948-4.5209-4.91211l-3.041-9.29657a25.15357,25.15357,0,0,1-20.89111,4.72079c-2.82347-.64554-5.67592-1.90416-7.33216-4.28021s-1.64627-6.0617.6254-7.85842c1.11387-.881,2.59642-1.2157,3.66088-2.15577a4.10217,4.10217,0,0,0-3.27565-7.13851l7.65693-.957-2.28138-4.12614a7.535,7.535,0,0,0,5.99172,1.0992c2.06-.37093,4.0002-1.21914,6.01549-1.78479a23.15188,23.15188,0,0,1,25.75441,10.81464,9.80176,9.80176,0,0,1,10.687,3.08588c2.04974,2.60156,2.60717,6.07331,2.68659,9.38439a40.71463,40.71463,0,0,1-4.15033,18.86012,15.45115,15.45115,0,0,1-3.48657,4.94577,6.97822,6.97822,0,0,1-5.60143,1.83184" transform="translate(-262.02897 -164.07002)" fill="#2f2e41"/><path d="M404.40219,367.50327a38.99224,38.99224,0,0,0,5.03952,16.61592c6.12735,10.761,16.635,18.55205,27.952,23.183,14.13887,5.78576,29.89994,5.964,44.905,4.67391,13.93671-1.19822,27.73161-3.9757,41.71968-4.54814a290.67425,290.67425,0,0,1,32.435.77368c20.93161,1.48566,41.77624,4.2422,62.48665,7.58393q8.41338,1.34092,16.79136,2.8814a8.30457,8.30457,0,0,1,1.55945.28974c.10141.04156.26448.00913.35732.06753.16859.10618-.682-.26919-.16638.15694A15.47381,15.47381,0,0,1,639.394,421.642l7.64885,9.84331c2.19349,2.82282,4.22918,6.25235,7.064,8.4773a12.79059,12.79059,0,0,0,14.15922.98683,14.14994,14.14994,0,0,0,5.26533-5.981,51.61658,51.61658,0,0,1,6.26129-9.03759c9.09984-10.61576,21.74694-17.14527,32.32494-26.07738a57.57506,57.57506,0,0,0,12.92811-14.77806,41.79039,41.79039,0,0,0,5.34147-16.5949c1.26668-11.87124-2.37608-23.97752-8.50294-34.07663a68.07168,68.07168,0,0,0-27.63411-25.2936c-12.802-6.52219-26.968-9.69913-41.16812-11.28228-15.07643-1.68086-30.32813-1.67562-45.47815-1.50592q-25.50363.28389-50.91513,2.24306-25.44586,1.96956-50.69115,5.59916c-16.14935,2.32185-32.496,4.74188-48.30385,8.85022-13.96486,3.62937-27.89045,9.30228-38.31857,19.58089C410.10319,341.73455,403.65432,354.24087,404.40219,367.50327Z" transform="translate(-262.02897 -164.07002)" fill="#4a00e0"/><path d="M482.46256,371.27969a5.00673,5.00673,0,0,1-4.74267-5.62432l.35883-2.82483a3.37273,3.37273,0,0,0-1.0977-2.937l-2.12184-1.896a4.99256,4.99256,0,0,1,2.395-8.62841l2.79727-.53131a3.36716,3.36716,0,0,0,2.45306-1.94914l1.14815-2.60739a4.99375,4.99375,0,0,1,8.94657-.38788l1.3687,2.496a3.3679,3.3679,0,0,0,2.6145,1.73263l2.83185.2861a4.99272,4.99272,0,0,1,3.1339,8.38851l-1.95031,2.07351a3.36148,3.36148,0,0,0-.83849,3.01891l.60171,2.78437a4.9927,4.9927,0,0,1-7.00862,5.57168l-2.57528-1.21347a3.35983,3.35983,0,0,0-3.13216.13461l-2.46066,1.43289A4.99889,4.99889,0,0,1,482.46256,371.27969Z" transform="translate(-262.02897 -164.07002)" fill="#fff"/><path d="M522.558,370.11518a5.04346,5.04346,0,0,1-3.36337-1.50156,5.17347,5.17347,0,0,1-1.35388-4.32291l.32924-2.5919a3.43188,3.43188,0,0,0-1.11784-2.99155l-1.96831-1.7588a5.13349,5.13349,0,0,1-1.79914-4.0285,4.99124,4.99124,0,0,1,4.06492-4.71539l2.76479-.52514a3.43125,3.43125,0,0,0,2.5-1.98821l1.03031-2.33979a5.22514,5.22514,0,0,1,4.40614-3.20619,4.96762,4.96762,0,0,1,4.64379,2.58361l1.35279,2.467a3.43328,3.43328,0,0,0,2.66529,1.76515l2.62461.26516a5.13094,5.13094,0,0,1,3.82473,2.20359,4.99253,4.99253,0,0,1-.51847,6.20233l-1.92768,2.04945a3.43035,3.43035,0,0,0-.85423,3.07484l.55556,2.57084a5.15516,5.15516,0,0,1-.90576,4.31869,4.97984,4.97984,0,0,1-6.06361,1.43465l-2.54866-1.20092a3.4292,3.4292,0,0,0-3.18733.13869l-2.4321,1.41627A4.999,4.999,0,0,1,522.558,370.11518Z" transform="translate(-262.02897 -164.07002)" fill="#fff"/><path d="M562.75714,369.94527a5.00673,5.00673,0,0,1-4.74267-5.62433l.35882-2.82482a3.3727,3.3727,0,0,0-1.09769-2.937l-2.12185-1.896a4.99258,4.99258,0,0,1,2.395-8.62842l2.79727-.53131a3.36713,3.36713,0,0,0,2.45306-1.94913l1.14814-2.60739a4.99376,4.99376,0,0,1,8.94658-.38789l1.3687,2.496a3.3679,3.3679,0,0,0,2.61449,1.73263l2.83186.2861a4.99272,4.99272,0,0,1,3.1339,8.3885l-1.95031,2.07352a3.36142,3.36142,0,0,0-.83849,3.0189l.6017,2.78437a4.99269,4.99269,0,0,1-7.00862,5.57168l-2.57527-1.21346a3.35979,3.35979,0,0,0-3.13217.13461l-2.46065,1.43289A4.999,4.999,0,0,1,562.75714,369.94527Z" transform="translate(-262.02897 -164.07002)" fill="#fff"/><path d="M601.858,368.88446a5.00674,5.00674,0,0,1-4.74267-5.62432l.35883-2.82483a3.37275,3.37275,0,0,0-1.09769-2.937l-2.12185-1.896a4.99256,4.99256,0,0,1,2.395-8.62841l2.79728-.53131a3.36713,3.36713,0,0,0,2.453-1.94914l1.14815-2.60739a4.99376,4.99376,0,0,1,8.94658-.38788l1.3687,2.496a3.36789,3.36789,0,0,0,2.61449,1.73263l2.83186.2861a4.99272,4.99272,0,0,1,3.1339,8.38851l-1.95032,2.07351a3.36145,3.36145,0,0,0-.83848,3.01891l.6017,2.78437a4.99269,4.99269,0,0,1-7.00862,5.57168l-2.57527-1.21347a3.35985,3.35985,0,0,0-3.13217.13461l-2.46065,1.4329A4.999,4.999,0,0,1,601.858,368.88446Z" transform="translate(-262.02897 -164.07002)" opacity="0.2"/><path d="M640.95879,367.82366a5.00675,5.00675,0,0,1-4.74267-5.62433l.35883-2.82482a3.37276,3.37276,0,0,0-1.09769-2.937l-2.12185-1.896a4.99256,4.99256,0,0,1,2.395-8.62841l2.79728-.53131a3.36712,3.36712,0,0,0,2.453-1.94913l1.14815-2.6074a4.99376,4.99376,0,0,1,8.94658-.38788l1.36869,2.49605a3.368,3.368,0,0,0,2.6145,1.73263l2.83186.2861a4.99272,4.99272,0,0,1,3.1339,8.3885l-1.95032,2.07352a3.36142,3.36142,0,0,0-.83848,3.0189l.6017,2.78437a4.99269,4.99269,0,0,1-7.00862,5.57168l-2.57527-1.21346a3.35979,3.35979,0,0,0-3.13217.13461l-2.46066,1.43289A4.999,4.999,0,0,1,640.95879,367.82366Z" transform="translate(-262.02897 -164.07002)" opacity="0.2"/><path d="M890.07067,701.43944,891.21453,675.72a83.06565,83.06565,0,0,1,38.74475-9.8078c-18.60845,15.21374-16.283,44.54071-28.899,64.99963A49.96442,49.96442,0,0,1,864.42089,754.001l-15.5722,9.53437a83.72447,83.72447,0,0,1,17.647-67.8451,80.87424,80.87424,0,0,1,14.863-13.81018C885.08819,691.71428,890.07067,701.43944,890.07067,701.43944Z" transform="translate(-262.02897 -164.07002)" fill="#f2f2f2"/><path d="M979.34727,765.78825H561.96534a1.19068,1.19068,0,1,1,0-2.38137H979.34727a1.19068,1.19068,0,1,1,0,2.38137Z" transform="translate(-262.02897 -164.07002)" fill="#cacaca"/></svg>