<?xml version="1.0" encoding="utf-8"?>
<!-- Generator: Adobe Illustrator 25.0.0, SVG Export Plug-In . SVG Version: 6.00 Build 0)  -->
<svg version="1.1" id="图层_1" xmlns="http://www.w3.org/2000/svg" xmlns:xlink="http://www.w3.org/1999/xlink" x="0px" y="0px"
	 viewBox="0 0 200 200" style="enable-background:new 0 0 200 200;" xml:space="preserve">
<style type="text/css">
	.st0{fill:#85EFDE;}
	.st1{fill:#93C6F1;}
	.st2{fill:#53BDDF;}
	.st3{fill:#86DAEF;}
	.st4{fill:#C986FF;}
	.st5{fill:#8973F6;}
	.st6{fill:#7687F0;}
</style>
<image style="display:none;overflow:visible;" width="500" height="500" xlink:href="FightingDesign.png"  transform="matrix(0.4 0 0 0.4 0.2293 0)">
</image>
<g id="上">
	<path class="st0" d="M53.7,54.2c0,0,43.3-11.7,52.3-28.9c5.4-12.6-5.2-14.4-7.9-13.9s-15,3.1-17.9,4.7c-2.9,1.6-12.4,9.6-12.4,9.6
		l-7,9.3C60.8,35,52.3,51.2,53.7,54.2z"/>
	<path class="st1" d="M53.7,54.2c0,0-14.8,45.1-25.8,51.4s-17.2,2.7-17.5-3.5c-0.3-6.2,4.6-19.9,4.9-20.5
		c0.2-0.6,15.8-21.6,22.8-23.9C45.1,55.3,53.7,54.2,53.7,54.2z"/>
	<path class="st2" d="M53.7,54.2c0,0,9.9-37.3,44.3-42.8c-9.8-0.9-39.4,4.4-63.9,27.1c-23.7,23.7-23.7,59-23.7,63.6
		C10.5,102,10.5,70.5,53.7,54.2z"/>
</g>
<g id="下">
	<path class="st3" d="M141,143.3c0,0-43.3,11.7-52.3,28.9c-5.4,12.6,5.2,14.4,7.9,13.9c2.8-0.5,15-3.1,17.9-4.7s12.4-9.5,12.4-9.5
		l7-9.3C133.9,162.5,142.4,146.3,141,143.3z"/>
	<path class="st4" d="M141,143.3c0,0,14.8-45,25.8-51.3s17.2-2.7,17.5,3.5s-4.6,19.9-4.9,20.5c-0.2,0.6-15.8,21.6-22.8,23.9
		C149.6,142.1,141,143.3,141,143.3z"/>
	<path class="st5" d="M141,143.3c0,0-10,37.3-44.4,42.8c9.8,0.9,39.4-4.4,63.9-27c23.7-23.7,23.7-59,23.7-63.6
		C184.3,95.5,184.3,127,141,143.3z"/>
</g>
<path class="st1" d="M148.6,45.7c0,0,7-17-10.9-22.6C115,16.3,89.9,73.8,83.1,90.7L76,111l-12.5,21.9c0,0-14.6,13.8-16.1,19.6
	c-2.1,4-6.9,17.8,13,21.7c19.9,3.9,39.4-42,49.5-62.3c8.1-20.6,6.8-29.1,6.8-29.1l19.1-21.8L148.6,45.7z"/>
<g>
	<g>
		<path class="st1" d="M46.9,152.1c-1.2,2.1-2,4.4-2.4,6.7c-0.2,1.1-0.4,2.4-0.2,3.5c0.2,1.2,1,2.2,1.6,3.2c0.6,1.1,2.4,0.1,1.7-1
			c-0.5-0.8-1.2-1.7-1.3-2.7c-0.1-0.9,0.1-2,0.2-3c0.4-2,1.1-4,2.1-5.8C49.3,152,47.5,151,46.9,152.1L46.9,152.1z"/>
	</g>
</g>
<g>
	<g>
		<path class="st1" d="M148.4,34.6c0.2,2.5,0.6,4.9-0.1,7.3c-0.3,1-0.5,2.2-1.3,2.9c-0.7,0.6-1.2,1.3-1.4,2.2
			c-0.3,1.3,1.5,1.7,1.9,0.5c0.1-0.3,0.3-0.6,0.4-1c-0.6,0.1-1.2,0.2-1.8,0.2c0.3,0.6-1.4,1.7-1.7,2.1c-0.3,0.4-0.6,0.8-0.9,1.1
			c-0.4,0.3-0.8,0.6-1.1,1c-0.6,0.6-0.9,1.4-1.5,2c-0.6,0.7-1.4,1.3-2.2,1.8c-1.1,0.7-0.1,2.4,1,1.7c1-0.6,1.9-1.4,2.7-2.3
			c0.8-1,1.4-2,2.3-2.8c0.5-0.4,0.8-1,1.3-1.5c0.4-0.4,0.9-0.7,1.3-1.2c0.8-0.9,1.1-2,0.5-3.1c-0.4-0.9-1.5-0.5-1.8,0.2
			c-0.1,0.3-0.3,0.6-0.4,1c0.6,0.2,1.3,0.4,1.9,0.5c0.3-1,1.3-1.4,1.8-2.3c0.5-0.9,0.8-2.1,1.1-3.1c0.6-2.5,0.2-5,0-7.5
			C150.3,33.3,148.3,33.3,148.4,34.6L148.4,34.6z"/>
	</g>
</g>
<path class="st4" d="M87.2,85.2c0,0-65.2,28.4-65.5,49.5S43.9,153,43.9,153l18.2-19l6.5-3.8L91.1,118l16.3-5.6l3.9-1.3
	c0,0,45.5-24.1,50.2-27.6s20.6-22.4,5.4-34.9c-15.2-12.5-32.7,14.9-32.7,14.9L94.6,84.3L87.2,85.2z"/>
<path class="st6" d="M145.6,27.4c0,0,14.7,10.7,24,23.9c-17.2-16.3-35.9,11.3-47.9,36.6S110,111.6,110,111.6s-90.5,37.2-58.2,59.6
	c-4.7-3.4-17.8-9.6-25.2-23.1c15,11.5,32.3-2.1,58.3-61.9C90.2,82.3,170,55.4,145.6,27.4z"/>
</svg>
